<?xml version="1.0" encoding="utf-8"?>
<!-- Generator: Adobe Illustrator 27.4.0, SVG Export Plug-In . SVG Version: 6.00 Build 0)  -->
<svg version="1.1" id="Layer_1" xmlns="http://www.w3.org/2000/svg" xmlns:xlink="http://www.w3.org/1999/xlink" x="0px" y="0px"
	 viewBox="0 0 129 130" style="enable-background:new 0 0 129 130;" xml:space="preserve">
<style type="text/css">
	.st0{fill:#9FCED9;}
	.st1{fill:#FFFFFF;stroke:#9FCED9;stroke-width:3;stroke-linejoin:round;stroke-miterlimit:10;}
	.st2{fill:#9FCED9;stroke:#9FCED9;stroke-width:3;stroke-linejoin:round;stroke-miterlimit:10;}
	.st3{fill:none;stroke:#9FCED9;stroke-width:3;stroke-miterlimit:10;}
</style>
<g>
	<g>
		<g>
			<path class="st0" d="M102.45,44.02H26.64v46.26h35.02c0.58,0.73,1.65,1.22,2.88,1.22c1.23,0,2.31-0.49,2.88-1.22l34.79,0.07
				L102.45,44.02z"/>
			<rect x="28.37" y="44.83" class="st1" width="72.36" height="43.71"/>
			<path class="st2" d="M48.49,85.05c0,0,0.92,5.28-0.69,8.83l3.21-2.29L53.19,94c0,0,1.38-4.01,0.34-9.18L48.49,85.05z"/>
			<path class="st1" d="M28.37,43.96v44.7c0,0,17.41-6.67,35.95-0.12V43.97C64.32,43.97,43.93,41.86,28.37,43.96z"/>
			<path class="st1" d="M29.57,43.22v44.7c0,0,19.57-6.54,34.75,0.62l0.05-44.57C64.38,43.98,35.99,40.26,29.57,43.22z"/>
			<path class="st1" d="M32.78,37.67l0.12,44.45c0,0,21.54-1.73,31.42,6.42l-0.02-44.56C64.31,43.98,47.72,35.32,32.78,37.67z"/>
			<path class="st1" d="M39.51,33.97v45.07c0,0,14.08-1.98,24.82,9.51l0.11-44.67C64.44,43.87,55.56,32.73,39.51,33.97z"/>
		</g>
		<g>
			<path class="st1" d="M100.31,44.17v44.7c0,0-17.59-6.87-35.99-0.32l0.18-44.38C64.5,44.17,84.75,42.07,100.31,44.17z"/>
			<path class="st1" d="M99.24,43.43v44.7c0,0-19.73-6.74-34.91,0.42l0.09-44.37C64.42,44.17,92.82,40.46,99.24,43.43z"/>
			<path class="st1" d="M95.86,37.82l-0.12,44.45c0,0-21.54-1.88-31.41,6.27l0.05-44.55C64.38,43.99,80.92,35.47,95.86,37.82z"/>
		</g>
	</g>
	<circle class="st3" cx="64.5" cy="65" r="61.5"/>
</g>
</svg>
