<?xml version="1.0" encoding="utf-8"?>
<!-- Generator: Adobe Illustrator 27.4.0, SVG Export Plug-In . SVG Version: 6.00 Build 0)  -->
<svg version="1.1" id="Layer_1" xmlns="http://www.w3.org/2000/svg" xmlns:xlink="http://www.w3.org/1999/xlink" x="0px" y="0px"
	 viewBox="0 0 129 130" style="enable-background:new 0 0 129 130;" xml:space="preserve">
<style type="text/css">
	.st0{fill:#9FCED9;}
	.st1{fill:none;stroke:#9FCED9;stroke-width:3;stroke-miterlimit:10;}
</style>
<g>
	<g>
		<path class="st0" d="M70.51,75.53c2.94-1.95,4.88-5.29,4.88-9.08c0-6.01-4.89-10.89-10.89-10.89c-6.01,0-10.89,4.89-10.89,10.89
			c0,3.79,1.94,7.12,4.88,9.08c-6.65,2.45-11.42,8.84-11.42,16.34h2.9c0-8.01,6.51-14.52,14.52-14.52s14.52,6.51,14.52,14.52h2.9
			C81.92,84.37,77.16,77.98,70.51,75.53z M64.5,74.44c-4.4,0-7.99-3.58-7.99-7.99c0-4.4,3.58-7.99,7.99-7.99
			c4.4,0,7.99,3.58,7.99,7.99C72.49,70.86,68.9,74.44,64.5,74.44z"/>
		<path class="st0" d="M85.03,68.27c2.94-1.95,4.88-5.29,4.88-9.08c0-6.01-4.89-10.89-10.89-10.89c-2.91,0-5.55,1.15-7.5,3.02
			c-0.72,0.69-1.35,1.48-1.86,2.35c0.91,0.37,1.77,0.82,2.57,1.36c0.51-0.84,1.17-1.57,1.95-2.16c1.35-1.03,3.03-1.66,4.85-1.66
			c4.4,0,7.99,3.58,7.99,7.99c0,3.66-2.47,6.74-5.83,7.68c-0.69,0.19-1.41,0.3-2.16,0.3c-0.26,0-0.51-0.01-0.76-0.04
			c-0.05,1.05-0.22,2.06-0.49,3.03c0.42-0.04,0.83-0.09,1.25-0.09c0.59,0,1.17,0.05,1.74,0.11c7.19,0.86,12.78,6.99,12.78,14.41h2.9
			C96.44,77.11,91.68,70.72,85.03,68.27z"/>
		<path class="st0" d="M49.98,70.08c0.42,0,0.83,0.05,1.25,0.09c-0.27-0.97-0.44-1.99-0.49-3.03c-0.25,0.02-0.5,0.04-0.76,0.04
			c-0.75,0-1.47-0.11-2.16-0.3c-3.36-0.94-5.83-4.03-5.83-7.68c0-4.4,3.58-7.99,7.99-7.99c1.83,0,3.51,0.62,4.85,1.66
			c0.77,0.6,1.44,1.33,1.95,2.16c0.8-0.54,1.66-0.99,2.57-1.36c-0.51-0.87-1.14-1.66-1.86-2.35c-1.96-1.86-4.6-3.02-7.5-3.02
			c-6.01,0-10.89,4.89-10.89,10.89c0,3.79,1.94,7.12,4.88,9.08c-6.65,2.45-11.42,8.84-11.42,16.34h2.9
			c0-7.42,5.59-13.54,12.78-14.41C48.81,70.13,49.39,70.08,49.98,70.08z"/>
		<path class="st0" d="M95.19,58.1c2.94-1.95,4.88-5.29,4.88-9.08c0-6.01-4.89-10.89-10.89-10.89c-2.91,0-5.55,1.15-7.5,3.02
			c-0.72,0.69-1.35,1.48-1.86,2.35c0.91,0.37,1.77,0.82,2.57,1.36c0.51-0.84,1.17-1.57,1.95-2.16c1.35-1.03,3.03-1.66,4.85-1.66
			c4.4,0,7.99,3.58,7.99,7.99c0,3.22-1.92,5.99-4.67,7.25c0.12,0.69,0.2,1.39,0.2,2.12c0,0.66-0.07,1.3-0.17,1.93
			c6.4,1.52,11.18,7.26,11.18,14.11h2.9C106.61,66.94,101.84,60.56,95.19,58.1z"/>
		<path class="st0" d="M36.3,58.39c0-0.72,0.08-1.43,0.2-2.12c-2.75-1.26-4.67-4.03-4.67-7.25c0-4.4,3.58-7.99,7.99-7.99
			c1.83,0,3.5,0.62,4.85,1.66c0.77,0.6,1.44,1.33,1.95,2.16c0.8-0.54,1.66-0.99,2.57-1.36c-0.51-0.87-1.14-1.66-1.86-2.35
			c-1.96-1.86-4.6-3.02-7.5-3.02c-6.01,0-10.89,4.89-10.89,10.89c0,3.79,1.94,7.12,4.88,9.08c-6.65,2.45-11.42,8.84-11.42,16.34h2.9
			c0-6.85,4.78-12.59,11.18-14.11C36.37,59.7,36.3,59.05,36.3,58.39z"/>
		<path class="st0" d="M64.5,41.04c3.88,0,7.09,2.8,7.8,6.48c1.59-0.96,2.74-1.17,2.74-1.17c-1.2-4.71-5.46-8.21-10.54-8.21
			c-5.08,0-9.34,3.5-10.54,8.21c0,0,1.15,0.21,2.74,1.17C57.41,43.84,60.62,41.04,64.5,41.04z"/>
	</g>
	<circle class="st1" cx="64.5" cy="65" r="61.5"/>
</g>
</svg>
