<?xml version="1.0" encoding="utf-8"?>
<!-- Generator: Adobe Illustrator 27.4.0, SVG Export Plug-In . SVG Version: 6.00 Build 0)  -->
<svg version="1.1" id="Layer_1" xmlns="http://www.w3.org/2000/svg" xmlns:xlink="http://www.w3.org/1999/xlink" x="0px" y="0px"
	 viewBox="0 0 129 130" style="enable-background:new 0 0 129 130;" xml:space="preserve">
<style type="text/css">
	.st0{fill-rule:evenodd;clip-rule:evenodd;fill:#9FCED9;stroke:#9FCED9;stroke-width:2;stroke-miterlimit:10;}
	.st1{fill-rule:evenodd;clip-rule:evenodd;fill:#FFFFFF;stroke:#9FCED9;stroke-width:3;stroke-miterlimit:10;}
	.st2{fill:#FFFFFF;stroke:#9FCED9;stroke-width:3;stroke-miterlimit:10;}
	.st3{fill-rule:evenodd;clip-rule:evenodd;fill:#9FCED9;}
	.st4{fill-rule:evenodd;clip-rule:evenodd;fill:#FFFFFF;}
	.st5{fill:none;stroke:#9FCED9;stroke-width:3;stroke-miterlimit:10;}
</style>
<g>
	<g>
		<g>
			<path class="st0" d="M98.96,52.35L94.9,39.42c-0.29-0.91-0.78-1.74-1.74-1.74h-9.63c-0.96,0-1.45,0.83-1.74,1.74l-4.07,12.93
				c-0.29,0.91,0.78,1.74,1.74,1.74h17.77C98.18,54.09,99.25,53.26,98.96,52.35z"/>
			<path class="st0" d="M37.18,37.68h9.63c0.96,0,1.45,0.83,1.74,1.74l4.07,12.93c0.29,0.91-0.78,1.74-1.74,1.74H33.11
				c-0.96,0-2.03-0.83-1.74-1.74l4.07-12.93C35.73,38.51,36.22,37.68,37.18,37.68z"/>
		</g>
		<g>
			<path class="st1" d="M105.86,90.26c0.09-0.12,0.17-0.24,0.26-0.37c0.08-0.13,0.16-0.25,0.24-0.38c0.07-0.12,0.14-0.24,0.21-0.37
				c0.07-0.14,0.15-0.28,0.22-0.42c0.05-0.11,0.1-0.22,0.15-0.34c0.26-0.59,0.45-1.2,0.59-1.83c0.02-0.09,0.04-0.18,0.06-0.27
				c0.04-0.18,0.06-0.37,0.09-0.56c0.01-0.11,0.03-0.21,0.04-0.32c0.02-0.18,0.03-0.37,0.04-0.55c0.01-0.11,0.01-0.23,0.01-0.34
				c0-0.18,0-0.36-0.01-0.54c-0.01-0.12-0.02-0.25-0.03-0.37c-0.01-0.17-0.03-0.34-0.05-0.52c-0.02-0.15-0.05-0.29-0.08-0.44
				c-0.03-0.15-0.05-0.3-0.09-0.45c-0.07-0.3-0.15-0.59-0.25-0.89l-8.28-24.92c-1.73-5.14-6.06-4.29-11.2-2.56
				c-5.14,1.73-7.93,7.35-6.2,12.49l6.99,21.28c1.73,5.14,7.35,7.93,12.49,6.2c0.68-0.23,1.32-0.53,1.92-0.89c0,0,0,0,0,0.01
				c0.2-0.12,0.39-0.25,0.58-0.38c0.1-0.07,0.19-0.14,0.29-0.21c0.18-0.14,0.36-0.28,0.53-0.43c0.09-0.08,0.18-0.17,0.27-0.26
				c0.13-0.12,0.25-0.24,0.37-0.36c0.09-0.1,0.18-0.2,0.27-0.31c0.1-0.12,0.21-0.24,0.31-0.37
				C105.69,90.49,105.78,90.38,105.86,90.26z"/>
			<path class="st1" d="M42.56,53.83L42.56,53.83c-5.14-1.73-9.47-2.58-11.2,2.56l-8.28,24.92c-0.1,0.29-0.18,0.59-0.25,0.89
				c-0.04,0.15-0.06,0.3-0.09,0.45c-0.03,0.15-0.06,0.29-0.08,0.44c-0.02,0.17-0.04,0.34-0.05,0.51c-0.01,0.13-0.02,0.25-0.03,0.38
				c-0.01,0.18-0.01,0.36-0.01,0.53c0,0.12,0,0.23,0.01,0.35c0.01,0.18,0.02,0.36,0.04,0.54c0.01,0.11,0.03,0.22,0.04,0.32
				c0.02,0.19,0.05,0.37,0.08,0.55c0.02,0.09,0.04,0.18,0.06,0.28c0.14,0.62,0.34,1.23,0.59,1.81c0.05,0.12,0.1,0.23,0.15,0.34
				c0.07,0.14,0.14,0.28,0.22,0.42c0.07,0.12,0.13,0.25,0.21,0.37c0.08,0.13,0.16,0.25,0.24,0.38c0.08,0.13,0.17,0.25,0.26,0.37
				c0.08,0.12,0.17,0.23,0.26,0.34c0.1,0.12,0.2,0.25,0.31,0.37c0.09,0.1,0.18,0.21,0.27,0.31c0.12,0.13,0.25,0.24,0.37,0.36
				c0.09,0.09,0.18,0.17,0.27,0.26c0.17,0.15,0.35,0.29,0.54,0.43c0.09,0.07,0.18,0.14,0.28,0.21c0.19,0.13,0.38,0.26,0.58,0.39
				c0,0,0,0,0-0.01c0.6,0.36,1.24,0.66,1.92,0.89h0c5.14,1.73,10.76-1.06,12.49-6.2l6.99-21.28C50.49,61.18,47.7,55.56,42.56,53.83z
				"/>
		</g>
		<path class="st2" d="M88.34,40.46c-3.91,0-7.42,1.67-9.89,4.33c-2.43,0.19-4.83,0.34-7.22,0.42c-0.37,0.01-0.75,0.04-1.12,0.05
			c-0.89,0.03-1.78,0.03-2.67,0.04c-5.15,0.07-10.29-0.09-15.54-0.51c-2.47-2.66-5.98-4.34-9.9-4.34c-7.46,0-13.5,6.04-13.5,13.5
			c0,7.46,6.04,13.5,13.5,13.5c0.79,0,1.57-0.07,2.33-0.2c-0.6,1.3-0.93,2.74-0.93,4.26c0,5.62,4.55,10.17,10.17,10.17
			c5.25,0,9.57-3.98,10.11-9.08h1.5h1.5c0.54,5.11,4.86,9.08,10.11,9.08c5.62,0,10.17-4.55,10.17-10.17c0-1.52-0.33-2.96-0.93-4.26
			c0.76,0.13,1.53,0.2,2.33,0.2c7.46,0,13.5-6.04,13.5-13.5C101.84,46.5,95.8,40.46,88.34,40.46z"/>
		<g>
			<path class="st1" d="M53.56,76.41c2.7,0,4.9-2.2,4.9-4.9c0-2.7-2.2-4.9-4.9-4.9c-2.7,0-4.9,2.2-4.9,4.9
				C48.66,74.21,50.86,76.41,53.56,76.41z"/>
		</g>
		<circle class="st3" cx="95.79" cy="53.96" r="3.57"/>
		<path class="st3" d="M80.89,57.53c1.97,0,3.57-1.6,3.57-3.57s-1.6-3.57-3.57-3.57c-1.97,0-3.57,1.6-3.57,3.57
			S78.92,57.53,80.89,57.53z"/>
		<circle class="st3" cx="88.49" cy="46.64" r="3.57"/>
		<circle class="st3" cx="88.49" cy="61.27" r="3.57"/>
		<g>
			
				<ellipse transform="matrix(0.7071 -0.7071 0.7071 0.7071 -25.8537 45.4987)" class="st3" cx="41.99" cy="53.96" rx="9.99" ry="9.99"/>
			<g>
				<rect x="39.67" y="46.65" class="st4" width="4.64" height="14.62"/>
				<rect x="34.68" y="51.64" class="st4" width="14.62" height="4.64"/>
			</g>
		</g>
		<path class="st1" d="M76.78,76.41c2.7,0,4.9-2.2,4.9-4.9c0-2.7-2.2-4.9-4.9-4.9c-2.7,0-4.9,2.2-4.9,4.9
			C71.88,74.21,74.08,76.41,76.78,76.41z"/>
	</g>
	<circle class="st5" cx="64.44" cy="65.09" r="61.5"/>
</g>
</svg>
