<?xml version="1.0" encoding="utf-8"?>
<!-- Generator: Adobe Illustrator 27.4.0, SVG Export Plug-In . SVG Version: 6.00 Build 0)  -->
<svg version="1.1" id="Layer_1" xmlns="http://www.w3.org/2000/svg" xmlns:xlink="http://www.w3.org/1999/xlink" x="0px" y="0px"
	 viewBox="0 0 440.7 419.7" style="enable-background:new 0 0 440.7 419.7;" xml:space="preserve">
<style type="text/css">
	.st0{fill:none;stroke:#000000;stroke-width:3;stroke-miterlimit:10;}
	.st1{fill:#FFCC00;stroke:#000000;stroke-width:2;stroke-miterlimit:10;}
	.st2{fill:#F5AD9D;stroke:#000000;stroke-width:2;stroke-miterlimit:10;}
	.st3{fill:#147F7C;stroke:#000000;stroke-width:2;stroke-miterlimit:10;}
	.st4{fill:#047F7C;stroke:#000000;stroke-width:2;stroke-miterlimit:10;}
	.st5{fill:#047F7C;stroke:#000000;stroke-miterlimit:10;}
	.st6{fill:#027F7C;stroke:#000000;stroke-width:2;stroke-miterlimit:10;}
	.st7{fill:#147F7C;}
	.st8{font-family:'SignPainter-HouseScript';}
	.st9{font-size:120px;}
	.st10{fill:none;stroke:#147F7C;stroke-width:3;stroke-miterlimit:10;}
</style>
<g id="OBJECTS">
	<g>
		<path class="st0" d="M310.9,185.7l-3.9,108c-0.3,8.4-7.6,15.1-16.5,15.1H159.1c-8.9,0-16.2-6.7-16.5-15.1l-3.9-108
			c-0.3-8.8,7.2-16.1,16.5-16.1h139.1C303.7,169.5,311.2,176.9,310.9,185.7z"/>
		<path class="st1" d="M198.5,256.8h23.1v-25.9h-7.3c-8.8,0-15.9,6.7-15.9,14.9V256.8L198.5,256.8z M198.5,285.5h23.1v-21.8h-23.1
			V285.5z M228,285.5h23.1v-21.8H228V285.5z M228,230.9v25.9h23.1v-10.9c0-8.3-7.1-14.9-15.9-14.9H228L228,230.9z"/>
		<g>
			<g>
				<polygon class="st2" points="230.3,178.4 316.9,258.2 305.4,195.7 230.3,108.4 				"/>
				<polygon class="st2" points="230.3,178.4 324.7,254.9 313.2,192.5 230.3,108.4 				"/>
				<polygon class="st2" points="230.3,178.4 332,251.7 323,187.2 230.3,108.4 				"/>
			</g>
			<g>
				<polygon class="st2" points="219.3,178.4 132.6,258.2 144.1,195.7 219.3,108.4 				"/>
				<polygon class="st2" points="219.3,178.4 124.9,254.9 136.4,192.5 219.3,108.4 				"/>
				<polygon class="st2" points="219.3,178.4 117.6,251.7 126.5,187.2 219.3,108.4 				"/>
			</g>
			<path class="st3" d="M219.2,178.5l-113.9,67.5c-0.1,0.1-0.4-0.1-0.3-0.2l11.9-68.1c0-0.1,0.1-0.1,0.1-0.1l102.1-69
				c0.1-0.1,0.3,0,0.3,0.2v69.5C219.3,178.4,219.2,178.5,219.2,178.5z"/>
			<polygon class="st4" points="230.3,178.4 344.7,246.2 332.7,177.7 230.3,108.4 			"/>
			<path class="st5" d="M230.3,178.4c0,0-1.9-2.4-5.5-2.4s-5.5,2.4-5.5,2.4v-70c0,0,2-2.4,5.5-2.4s5.5,2.4,5.5,2.4V178.4z"/>
			<g>
				<path class="st3" d="M230.3,180.1c-0.6,0-1.1-0.2-1.5-0.7c-0.1-0.1-1.5-1.7-4-1.7s-3.9,1.6-4,1.7c-0.6,0.8-1.8,0.9-2.6,0.3
					c-0.9-0.6-1-1.7-0.4-2.4c0.1-0.1,2.5-3,7-3c4.4,0,6.8,2.9,7,3c0.6,0.8,0.5,1.9-0.4,2.5C231.1,180,230.6,180.1,230.3,180.1z"/>
			</g>
			<g>
				<polygon class="st4" points="342.6,249.1 229.2,179.9 231.2,177 344.7,246.2 				"/>
			</g>
			<g>
				<polygon class="st6" points="106.9,249.1 104.9,246.2 218.3,177 220.3,179.9 				"/>
			</g>
		</g>
	</g>
</g>
<g id="TEXTS">
	<text transform="matrix(1.1561 1.981523e-02 4.977428e-03 1 6.1891 407.1537)" class="st7 st8 st9">School</text>
	<text transform="matrix(0.97 0.6607 -0.563 0.8265 175.2049 698.9977)" class="st7 st8" style="font-size:130px;"> </text>
	<text transform="matrix(0.97 0.6607 -0.563 0.8265 175.2049 698.9977)" class="st7 st8" style="font-size:130px;"> </text>
	<text transform="matrix(1.1607 9.780237e-03 -2.852322e-02 0.9996 308.0732 410.1041)" class="st7 st8 st9">Me</text>
</g>
<ellipse class="st10" cx="226.1" cy="211.1" rx="134.6" ry="128.8"/>
</svg>
